<svg xmlns="http://www.w3.org/2000/svg" viewBox="0 0 679 454.9"><defs><style>.a{fill:#ff0;}.b{fill:red;}.c{fill:#ff931e;}.d{fill:lime;}.e{fill:aqua;}.f{fill:blue;}.g{fill:#93278f;}</style></defs><path class="a" d="M462.1,381.2,439,369.6c-6.4-3.3-12.8-6.6-19-10.1a7.8,7.8,0,0,1-3.5-3.7Q376.2,252,336,148.3a17.8,17.8,0,0,1-.3-2l8.1-3.1c20.7-7.6,28-31.3,14.9-49.1-10.4-14.2-21.3-28.2-31.6-42.5a98.2,98.2,0,0,1-10.3-18.1c-2.3-5,0-7.6,5.3-6.5a51.8,51.8,0,0,1,13.5,4.9Q397.4,65.7,459,99.7a7.9,7.9,0,0,1,3.3,5.8q.1,135.8.1,271.5C462.4,378.1,462.2,379.2,462.1,381.2Z" transform="translate(-46 -26.8)"/><path class="b" d="M342.1,383.8l-37.3,38.7L46,293.7a29.9,29.9,0,0,1,15.2-20c24.6-13.7,49.1-27.3,73.9-40.5,14.6-7.8,29.5-14.6,44.3-22,2.7-1.4,4.5-1.4,6.8,1.1q77.1,84.9,154.3,169.5A11.5,11.5,0,0,1,342.1,383.8Z" transform="translate(-46 -26.8)"/><path class="c" d="M401.5,356.9c-17.4,2.3-32.7,8.8-47.1,18.7L197,203c41.1-19,82.2-36.2,124.7-51.9Z" transform="translate(-46 -26.8)"/><path class="d" d="M476.4,111c26,15.7,50.2,31.9,69.5,54.2,10.9,12.6,21.3,25.6,31.9,38.4a6.4,6.4,0,0,1,1.3,7.2q-36,92.4-71.7,184.7a28,28,0,0,1-1.9,4c-9.1-3.5-18.1-7-27-10.6a4.8,4.8,0,0,1-2-3,16.8,16.8,0,0,1-.1-3.9V111Z" transform="translate(-46 -26.8)"/><path class="e" d="M590.5,220.9c7.1,11.9,13.2,22.7,19.9,33.2A86.8,86.8,0,0,0,622.2,268c10.6,10.5,21.6,20.7,32.7,31.3l-17.8,19.6c-28.2,31-56.5,62-84.6,93.1-3.3,3.6-5.8,4-10.1,2-7.3-3.5-15-6.3-23-9.6C542.9,343.6,566.4,282.9,590.5,220.9Z" transform="translate(-46 -26.8)"/><path class="f" d="M711.8,384.7l-18.6,9.4c-32.2,16-64.3,31.9-96.4,48-3,1.5-4.8,1.3-7.5-.7-8.7-6.5-17.9-12.5-27.2-18.9l101-110.8C671.8,318.4,704.5,367.5,711.8,384.7Z" transform="translate(-46 -26.8)"/><path class="g" d="M718.1,397.7c8.1,14.2,9.9,28,.7,42.2-5.2,8.1-9.6,16.7-14.5,25-7.4,12.7-19.1,18-33.6,16.5a201.6,201.6,0,0,0-26.9-1c-10,.1-18.4-2.8-25.2-10-4.8-5-9.3-10.4-14.3-16.1Z" transform="translate(-46 -26.8)"/></svg>